<?xml version="1.0" encoding="UTF-8"?><svg id="a" xmlns="http://www.w3.org/2000/svg" viewBox="0 0 540.21 183.32"><path d="M219.5,136.44c-6.42-.12-12.85-.2-19.22-1.11-5.05-.72-10-1.82-14.52-4.35-5.63-3.16-8.91-7.94-9.87-14.32-1.01-6.68.13-13.12,2.33-19.4,2.05-5.87,4.74-11.46,7.53-17.01,2.25-4.47,4.59-8.89,7.65-12.89,2.55-3.32,5.61-5.94,9.7-7.19,3.45-1.05,6.92-.88,10.4-.19,4.38.87,8.56,2.37,12.6,4.22,6.66,3.05,13.33,6.1,19.88,9.39,5.97,3,10.68,7.45,13.97,13.33,2.22,3.97,3.63,8.26,4.88,12.61.9,3.15,1.49,6.35,1.6,9.63.27,8.63-3.3,15.24-10.51,19.94-4.23,2.76-8.92,4.35-13.81,5.43-7.44,1.65-15.01,1.85-22.59,1.91Z"/><path d="M392.31,110.65c-2.71,8.46-5.38,16.95-9.12,25.03-2.96,6.41-6.39,12.53-11.54,17.51-6.43,6.21-14.07,8.64-22.9,7.38-9.25-1.32-17.33-5.39-24.79-10.81-6.96-5.06-13.31-10.84-19.55-16.74-5.03-4.76-9.96-9.62-14.03-15.26-3.39-4.7-5.64-9.8-5.67-15.71-.02-4.99,1.58-9.51,3.89-13.85,2.9-5.46,6.54-10.4,10.6-15.02,6.69-7.62,13.39-15.24,20.34-22.61,6.34-6.72,14.12-11.19,23.22-13.21,6.15-1.36,12.39-1.53,18.66-1.45,4.53.06,9.01.55,13.4,1.71,11.54,3.07,18.89,10.44,22.24,21.86,1.97,6.71,2.21,13.55,1.7,20.46-.77,10.52-3.51,20.63-6.46,30.7Z"/><path d="M506.77,160.51c-6.76,5.22-13.5,10.47-20.87,14.84-5.84,3.46-11.89,6.43-18.68,7.56-8.47,1.41-15.85-.83-22.14-6.65-6.6-6.09-10.78-13.72-13.72-22.07-2.75-7.8-4.62-15.83-6.34-23.91-1.39-6.51-2.64-13.04-2.78-19.73-.12-5.57.88-10.83,4.09-15.53,2.71-3.96,6.44-6.67,10.63-8.84,5.27-2.74,10.85-4.66,16.58-6.11,9.45-2.38,18.9-4.76,28.43-6.79,8.69-1.86,17.28-1.16,25.58,2.21,5.61,2.28,10.64,5.55,15.56,9.03,3.56,2.52,6.83,5.35,9.67,8.66,7.46,8.72,9.25,18.56,5.68,29.43-2.1,6.38-5.64,11.93-9.81,17.12-6.35,7.9-14.03,14.41-21.85,20.77Z"/><path d="M84.21,80.88c-5.76,5.56-11.51,11.15-17.93,15.97-5.09,3.82-10.42,7.21-16.64,8.96-7.75,2.18-14.85.85-21.32-3.92-6.78-5-11.45-11.68-15.05-19.16-3.36-6.98-5.93-14.28-8.36-21.63-1.96-5.93-3.8-11.88-4.62-18.1C-.39,37.82,0,32.81,2.51,28.11c2.11-3.97,5.32-6.87,9-9.33,4.63-3.09,9.63-5.46,14.83-7.39,8.56-3.19,17.13-6.37,25.8-9.25,7.9-2.62,15.99-2.85,24.07-.57,5.46,1.54,10.49,4.08,15.42,6.82,3.57,1.98,6.92,4.28,9.9,7.08,7.84,7.37,10.53,16.35,8.31,26.85-1.3,6.16-4.04,11.7-7.39,16.96-5.11,8.02-11.6,14.87-18.23,21.6Z"/></svg>