<?xml version="1.0" encoding="UTF-8"?><svg id="a" xmlns="http://www.w3.org/2000/svg" viewBox="0 0 16 16"><g style="opacity:.5;"><path d="M2,0v16h12V4L10,0H2Z" style="fill:#efefef;"/><path d="M10,3.98V0l4,4-4-.02Z" style="fill:#fff; isolation:isolate; opacity:.65;"/><path d="M13,5v5l-4-5h4Z" style="fill:#212121; isolation:isolate; opacity:.2;"/><path d="M2,0v16h12V4h-.01,0S10.01,0,10.01,0h0s0,0,0,0H2ZM3,1h6v4h4v10H3V1ZM10,1.41l2.59,2.59h-2.59V1.41Z" style="fill:#999;"/><rect x="4.05" y="2" width="2" height=".5" style="fill:#999;"/><rect x="4.03" y="3" width="4" height=".5" style="fill:#999;"/><rect x="4.03" y="4" width="4" height=".5" style="fill:#999;"/></g></svg>