<?xml version="1.0" encoding="UTF-8"?><svg id="a" xmlns="http://www.w3.org/2000/svg" viewBox="0 0 16 16"><path d="M2,0v16h12V4L10,0H2Z" style="fill:#efefef;"/><path d="M10,3.98V0l4,4-4-.02Z" style="fill:#fff; isolation:isolate; opacity:.65;"/><path d="M13,5v5l-4-5h4Z" style="fill:#212121; isolation:isolate; opacity:.2;"/><path d="M2,0v16h12V4h-.01,0S10.01,0,10.01,0h0s0,0,0,0H2ZM3,1h6v4h4v10H3V1ZM10,1.41l2.59,2.59h-2.59V1.41ZM6.05,2.5h-2v-.5h2v.5ZM8.03,3.5h-4v-.5h4v.5ZM8.03,4.5h-4v-.5h4v.5Z" style="fill:#999;"/></svg>