<svg xmlns="http://www.w3.org/2000/svg" viewBox="0 0 260 220.25" class="fill-blue">
    <path d="M125.79,220.25c21.68-.16,43.32-.74,64.61-5.46,13.98-3.1,27.4-7.64,39.5-15.53,20.61-13.43,30.84-32.36,30.06-57.03-.29-9.37-1.98-18.53-4.57-27.54-3.57-12.44-7.6-24.71-13.96-36.07-9.4-16.81-22.88-29.55-39.96-38.12-18.72-9.39-37.79-18.12-56.84-26.84-11.55-5.29-23.51-9.56-36.04-12.06-9.95-1.98-19.86-2.47-29.73.54-11.69,3.56-20.45,11.05-27.74,20.56-8.75,11.42-15.44,24.06-21.87,36.85-7.97,15.86-15.65,31.87-21.52,48.65C1.43,126.17-1.82,144.58,1.06,163.69c2.75,18.23,12.11,31.91,28.22,40.94,12.92,7.24,27.07,10.39,41.53,12.45,18.23,2.59,36.61,2.84,54.98,3.18Z" />
</svg>