<svg xmlns="http://www.w3.org/2000/svg" viewBox="0 0 260 223.54" class="fill-blue">
    <path d="M147.2,209.34c21.14-6.25,42.13-12.91,61.61-23.52,12.79-6.96,24.63-15.18,34.24-26.3,16.37-18.93,21.03-40.3,13.33-64.2-2.92-9.07-7.15-17.56-12.21-25.63-6.99-11.16-14.39-22.01-23.8-31.33-13.92-13.79-30.68-22.44-49.78-26.01-20.94-3.91-42.04-7.08-63.11-10.23C94.7.21,81.8-.6,68.86.49c-10.29.86-20.11,3.18-28.91,8.89-10.43,6.77-16.88,16.56-21.33,27.9-5.34,13.62-8.32,27.86-11.01,42.18-3.33,17.75-6.32,35.55-7.34,53.6-1.1,19.34.91,38.25,9.1,56.11,7.82,17.04,20.82,27.78,39.11,32.07,14.66,3.44,29.39,2.54,44.09.48,18.55-2.6,36.58-7.52,54.63-12.37Z" />
</svg>