<?xml version="1.0" encoding="UTF-8"?><svg id="a" xmlns="http://www.w3.org/2000/svg" viewBox="0 0 260 225.17"><path d="M141.8,2.54C120.23.44,98.65-1.24,76.99,1.23c-14.22,1.62-28.04,4.74-40.89,11.32C14.2,23.75,2.06,41.5.26,66.11c-.68,9.34.04,18.63,1.67,27.86,2.25,12.75,4.98,25.36,10.12,37.32,7.59,17.7,19.67,31.77,35.75,42.07,17.64,11.29,35.68,21.96,53.71,32.62,10.94,6.46,22.38,11.96,34.57,15.75,9.69,3.01,19.49,4.53,29.61,2.57,12-2.32,21.49-8.85,29.73-17.54,9.89-10.44,17.86-22.31,25.59-34.36,9.58-14.94,18.88-30.05,26.47-46.12,8.14-17.22,13.29-35.18,12.42-54.48-.83-18.41-8.71-32.99-23.79-43.65-12.09-8.55-25.83-13.16-39.99-16.71-17.85-4.48-36.1-6.65-54.33-8.9Z"/></svg>