<svg xmlns="http://www.w3.org/2000/svg" viewBox="0 0 260 261.07" class="fill-blue">
    <path d="M45.66,77.31c-13.02,18.3-25.67,36.83-34.62,57.58C5.15,148.51.82,162.54.1,177.49c-1.23,25.46,8.46,45.54,29.65,59.86,8.04,5.44,16.77,9.58,25.9,12.88,12.62,4.55,25.36,8.61,38.77,10.17,19.83,2.31,38.71-1.28,56.26-10.43,19.25-10.02,38.15-20.74,57.04-31.45,11.45-6.5,22.3-13.95,32-22.95,7.71-7.16,14.13-15.18,17.59-25.29,4.1-11.98,3.13-23.89-.43-35.77-4.28-14.28-10.83-27.57-17.68-40.74-8.48-16.32-17.27-32.48-27.79-47.6-11.28-16.2-24.76-30.1-42.56-39.27-16.98-8.75-34.15-9.19-51.51-1.14-13.92,6.45-25.16,16.43-35.65,27.32-13.24,13.74-24.61,29.02-36.03,44.25Z" />
</svg>