<svg xmlns="http://www.w3.org/2000/svg" viewBox="0 0 260 240.7" class="fill-blue">
    <path d="M186.31,191.26c17.23-13.79,34.16-27.89,48.15-45.03,9.19-11.25,17.01-23.28,21.63-37.12,7.87-23.56,3.92-44.89-12.51-63.8-6.24-7.18-13.46-13.33-21.3-18.78-10.83-7.54-21.91-14.64-34.28-19.57C169.71-.33,150.77-1.84,131.63,2.18c-20.99,4.42-41.82,9.57-62.64,14.73-12.63,3.13-24.93,7.31-36.54,13.24-9.23,4.71-17.46,10.58-23.42,19.16C1.96,59.48-.25,70.9.02,82.97c.32,14.5,3.07,28.65,6.13,42.77,3.79,17.5,7.91,34.93,13.97,51.83,6.49,18.11,15.68,34.64,30.23,47.84,13.88,12.6,30.13,17.46,48.8,14.41,14.97-2.45,28.3-8.89,41.17-16.39,16.23-9.46,31.09-20.84,45.99-32.16Z" />
</svg>