<svg xmlns="http://www.w3.org/2000/svg" viewBox="0 0 260 237.17" class="fill-blue">
    <path d="M154.92,13.34C133.94,7.38,112.88,1.84,90.99.39c-14.37-.95-28.61-.35-42.52,3.86C24.78,11.4,9.57,26.79,3.36,50.83,1.01,59.96.05,69.28,0,78.71c-.06,13.02.38,26,3.31,38.77,4.34,18.89,13.76,34.99,27.83,48.08,15.43,14.35,31.38,28.16,47.32,41.95,9.67,8.36,20.01,15.86,31.4,21.81,9.05,4.72,18.48,7.99,28.86,7.87,12.3-.14,22.87-4.9,32.58-12.03,11.67-8.56,21.69-18.87,31.51-29.42,12.17-13.07,24.09-26.36,34.5-40.9,11.15-15.58,19.48-32.44,22.08-51.7,2.48-18.38-2.7-34.22-15.71-47.49-10.43-10.64-23.21-17.67-36.59-23.73-16.87-7.64-34.55-13.07-52.19-18.57Z" />
</svg>