<svg xmlns="http://www.w3.org/2000/svg" viewBox="0 0 260 219.22">
    <path d="M186.31,174.19c17.23-12.56,34.16-25.4,48.15-41.01,9.19-10.25,17.01-21.2,21.63-33.8,7.87-21.45,3.92-40.88-12.51-58.11-6.24-6.54-13.46-12.14-21.3-17.1-10.83-6.86-21.91-13.33-34.28-17.82C169.71-.3,150.77-1.68,131.63,1.99c-20.99,4.02-41.82,8.72-62.64,13.41-12.63,2.85-24.93,6.65-36.54,12.06-9.23,4.29-17.46,9.63-23.42,17.45C1.96,54.18-.25,64.57.02,75.56c.32,13.2,3.07,26.1,6.13,38.96,3.79,15.94,7.91,31.81,13.97,47.2,6.49,16.49,15.68,31.54,30.23,43.57,13.88,11.48,30.13,15.9,48.8,13.12,14.97-2.23,28.3-8.1,41.17-14.93,16.23-8.61,31.09-18.98,45.99-29.29Z"/>
</svg>