<svg xmlns="http://www.w3.org/2000/svg" id="a" viewBox="0 0 49.43 56.74" width="49.43" height="56.74"><metadata><rdf:RDF xmlns:rdf="http://www.w3.org/1999/02/22-rdf-syntax-ns#" xmlns:dc="http://purl.org/dc/elements/1.1/"><rdf:Description><dc:creator>RealFaviconGenerator</dc:creator><dc:source>https://realfavicongenerator.net</dc:source></rdf:Description></rdf:RDF></metadata><path d="M27.99,10.7s.77.55,2.08.11c1.32-.45,3.19-6.64,3.07-7.64-.11-1-.33-2.32-1.97-2.99-1.65-.66-2.75.67-3.07,1.11-.33.44-1.21,5.09-1.65,6.64-.44,1.55,1.54,2.77,1.54,2.77ZM30.02,2.95c.16-.28.49-.5.49-.5,0,0,.5,1.38.28,2.38s-1.65,3.43-1.65,3.43c0,0,.71-5.04.88-5.31ZM48.73,56.72c-.44.17-2.42-.72-4.17-1-1.75-.27-3.95,0-3.95,0l-.99-.77s-.11-11.62-3.35-20.36c-3.24-8.74-7.52-11.84-7.52-11.84l-.99-.11s-1.1,4.26-2.52,5.09c-1.43.83-2.75,2.32-8.45,2.54-5.71.22-10.1-1.22-10.7-.94-.6.28-2.64,9.57-3.24,9.79-.6.22-1.81,0-2.08-.22s-.77-1.11-.77-1.66,2.52-8.07,2.42-8.85c-.11-.77-.22-1.05,0-1.33s1.43-.33,1.43-.33c0,0,7.03,2.32,12.84,1.66,1.92-.17,5.49-.33,7.13-2.43,1.65-2.1,1.87-4.31,1.87-4.31,0,0-.55-.33-.77-.89-.22-.55-.27-3.32-.33-4.54-.06-1.21.88-3.87.88-3.87,0,0-1.32-1.16-2.85-1.11-1.54.06-4.56.33-7.69,1.99-3.13,1.66-3.18,2.55-3.62,2.77-.44.22-2.14-.17-2.31-.55-.17-.39,2.03-2.66,4.17-3.43,2.14-.78,4.72-1.66,7.96-2.05,3.24-.38,6.15,1.5,6.75,1.71.61.22.93,0,1.87.22.93.22,1.87,2.6,1.76,3.49s-1.43,5.7-1.43,5.7c0,0,6.53,7.52,8.56,14.22,2.03,6.69,3.3,17.65,3.3,17.65,0,0,6.97-.27,7.35-.11.38.17-.11,3.71-.55,3.87h-.01Z" style="fill:#002d9c;"></path><style>@media (prefers-color-scheme: light) { :root { filter: none; } }
@media (prefers-color-scheme: dark) { :root { filter: contrast(0.3846153846153846) brightness(4.5); } }
</style></svg>